<svg width="500" height="532" viewBox="0 0 500 532" fill="none" xmlns="http://www.w3.org/2000/svg">
<path fill-rule="evenodd" clip-rule="evenodd" d="M284.659 0.0799488C337.272 -0.803658 393.186 5.25808 433.604 37.351C472.937 68.5817 485.017 119.634 495.379 167.397C504.728 210.493 498.374 252.843 489.733 296.072C479.722 346.15 475.43 398.684 441.296 437.948C400.949 484.358 347.9 530.371 284.659 531.963C221.083 533.563 171.944 483.354 121.89 445.987C73.8012 410.087 11.3039 377.726 1.18125 320.336C-8.79044 263.801 46.9139 218.815 72.6827 167.008C94.1872 123.775 100.77 72.7748 139.481 42.2906C179.454 10.8125 232.8 0.950881 284.659 0.0799488Z" fill="url(#paint0_linear_1_21)"/>
<defs>
<linearGradient id="paint0_linear_1_21" x1="250" y1="0" x2="250" y2="532" gradientUnits="userSpaceOnUse">
<stop stop-color="#5BE4FF"/>
<stop offset="1" stop-color="#004265"/>
</linearGradient>
</defs>
</svg>
