<svg width="28" height="22" viewBox="0 0 28 22" fill="none" xmlns="http://www.w3.org/2000/svg">
<path d="M4.42105 0H23.5789C24.7515 0 25.876 0.46357 26.7051 1.28873C27.5342 2.11389 28 3.23305 28 4.4V17.6C28 18.767 27.5342 19.8861 26.7051 20.7113C25.876 21.5364 24.7515 22 23.5789 22H4.42105C3.24852 22 2.124 21.5364 1.2949 20.7113C0.465788 19.8861 0 18.767 0 17.6V4.4C0 3.23305 0.465788 2.11389 1.2949 1.28873C2.124 0.46357 3.24852 0 4.42105 0ZM4.42105 1.46667C3.68421 1.46667 3.03579 1.716 2.53474 2.156L14 9.53333L25.4653 2.156C24.9642 1.716 24.3158 1.46667 23.5789 1.46667H4.42105ZM14 11.308L1.66526 3.344C1.54737 3.66667 1.47368 4.03333 1.47368 4.4V17.6C1.47368 18.378 1.78421 19.1241 2.33695 19.6742C2.88969 20.2243 3.63936 20.5333 4.42105 20.5333H23.5789C24.3606 20.5333 25.1103 20.2243 25.6631 19.6742C26.2158 19.1241 26.5263 18.378 26.5263 17.6V4.4C26.5263 4.03333 26.4526 3.66667 26.3347 3.344L14 11.308Z" fill="black" fill-opacity="0.5"/>
</svg>
