<svg width="28" height="23" viewBox="0 0 28 23" fill="none" xmlns="http://www.w3.org/2000/svg">
<path d="M1.89189 0.935281L2.85135 0L25.4865 22.0647L24.527 23L20.0135 18.5871C18.1622 19.3379 16.1351 19.7595 14 19.7595C7.83784 19.7595 2.51351 16.2686 0 11.197C1.31081 8.56243 3.36486 6.36254 5.89189 4.84765L1.89189 0.935281ZM14 18.4422C15.7432 18.4422 17.4189 18.1392 18.9595 17.5727L17.4459 16.0842C16.4595 16.7428 15.2838 17.1249 14 17.1249C10.6216 17.1249 7.91892 14.4903 7.91892 11.197C7.91892 9.94559 8.31081 8.79954 8.98649 7.83792L6.89189 5.80928C4.62925 7.09427 2.76956 8.95719 1.51351 11.197C3.91892 15.5178 8.59459 18.4422 14 18.4422ZM26.4865 11.197C24.0811 6.87629 19.4054 3.95189 14 3.95189C12.4459 3.95189 10.9324 4.20218 9.52703 4.65006L8.47297 3.62257C10.1892 2.97709 12.0541 2.63459 14 2.63459C20.1622 2.63459 25.4865 6.12543 28 11.197C26.772 13.6812 24.8699 15.7904 22.5 17.2961L21.527 16.3345C23.5946 15.0699 25.3108 13.3047 26.4865 11.197ZM14 5.26919C17.3784 5.26919 20.0811 7.90378 20.0811 11.197C20.0811 12.2772 19.7838 13.2784 19.2703 14.1478L18.2703 13.173C18.5676 12.567 18.7297 11.9084 18.7297 11.197C18.7297 9.97423 18.2314 8.80152 17.3444 7.93688C16.4574 7.07224 15.2544 6.58648 14 6.58648C13.2703 6.58648 12.5946 6.74456 11.973 7.03436L10.973 6.05957C11.8649 5.55899 12.8919 5.26919 14 5.26919ZM9.27027 11.197C9.27027 12.4198 9.76858 13.5925 10.6556 14.4572C11.5426 15.3218 12.7456 15.8076 14 15.8076C14.9054 15.8076 15.7432 15.5573 16.4595 15.1489L9.94595 8.79954C9.52703 9.49771 9.27027 10.3144 9.27027 11.197Z" fill="black" fill-opacity="0.5"/>
</svg>
